<svg xmlns="http://www.w3.org/2000/svg" width="511" height="431" viewBox="0 0 511 431">
  <g id="code" transform="translate(0 -40)">
    <path id="Caminho_36" data-name="Caminho 36" d="M455.5,40H55.5A55.563,55.563,0,0,0,0,95.5v320A55.563,55.563,0,0,0,55.5,471h400A55.563,55.563,0,0,0,511,415.5V95.5A55.563,55.563,0,0,0,455.5,40ZM496,415.5A40.546,40.546,0,0,1,455.5,456H55.5A40.546,40.546,0,0,1,15,415.5V95.5A40.546,40.546,0,0,1,55.5,55h400A40.546,40.546,0,0,1,496,95.5Z" fill="#00be9e"/>
    <path id="Caminho_37" data-name="Caminho 37" d="M471.5,120H39.5a7.5,7.5,0,0,0,0,15h432a7.5,7.5,0,0,0,0-15Z" fill="#00be9e"/>
    <path id="Caminho_38" data-name="Caminho 38" d="M55.5,95a7.511,7.511,0,1,0-5.3-2.2A7.51,7.51,0,0,0,55.5,95Z" fill="#00be9e"/>
    <path id="Caminho_39" data-name="Caminho 39" d="M119.5,95a7.511,7.511,0,1,0-5.3-2.2A7.528,7.528,0,0,0,119.5,95Z" fill="#00be9e"/>
    <path id="Caminho_40" data-name="Caminho 40" d="M87.5,95a7.511,7.511,0,1,0-5.3-2.2A7.51,7.51,0,0,0,87.5,95Z" fill="#00be9e"/>
    <path id="Caminho_41" data-name="Caminho 41" d="M188.8,210.2a7.5,7.5,0,0,0-10.606,0l-80,80a7.5,7.5,0,0,0,0,10.607l80,80A7.5,7.5,0,0,0,188.8,370.2l-74.7-74.7,74.7-74.7A7.5,7.5,0,0,0,188.8,210.2Z" fill="#00be9e"/>
    <path id="Caminho_42" data-name="Caminho 42" d="M332.8,210.2A7.5,7.5,0,1,0,322.2,220.8l74.7,74.7-74.7,74.7A7.5,7.5,0,0,0,332.8,380.8l80-80a7.5,7.5,0,0,0,0-10.607Z" fill="#00be9e"/>
    <path id="Caminho_43" data-name="Caminho 43" d="M290.063,200.451a7.5,7.5,0,0,0-9.611,4.485l-64,176a7.5,7.5,0,1,0,14.1,5.127l64-176A7.5,7.5,0,0,0,290.063,200.451Z" fill="#00be9e"/>
  </g>
</svg>
