<svg
  xmlns="http://www.w3.org/2000/svg"
  viewBox="0 0 83.052 81.002"
>
  <path
    d="M41.526,0A41.531,41.531,0,0,0,28.4,80.931c2.075.384,2.837-.9,2.837-2,0-.99-.039-4.262-.056-7.731-11.553,2.512-13.991-4.9-13.991-4.9-1.889-4.8-4.611-6.076-4.611-6.076-3.768-2.577.284-2.525.284-2.525,4.17.293,6.366,4.279,6.366,4.279,3.7,6.349,9.714,4.513,12.084,3.452a8.843,8.843,0,0,1,2.636-5.553c-9.223-1.05-18.92-4.611-18.92-20.523a16.07,16.07,0,0,1,4.279-11.146c-.431-1.046-1.852-5.27.4-10.99,0,0,3.487-1.116,11.423,4.257a39.393,39.393,0,0,1,20.8,0c7.926-5.373,11.408-4.257,11.408-4.257,2.26,5.72.838,9.943.407,10.99a16.039,16.039,0,0,1,4.274,11.146c0,15.949-9.714,19.462-18.961,20.489,1.489,1.289,2.817,3.816,2.817,7.69,0,5.556-.048,10.028-.048,11.4,0,1.105.747,2.4,2.853,1.992A41.532,41.532,0,0,0,41.526,0"
    fill="#161614"
  />
  <path
    d="M45.452,180.176c-.091.206-.416.268-.712.127s-.471-.417-.373-.624.415-.272.715-.129.474.419.369.626M47.495,182c-.2.184-.585.1-.848-.192a.635.635,0,0,1-.121-.863c.2-.183.58-.1.852.192s.324.677.117.863m1.4,2.332c-.255.177-.671.011-.928-.358s-.254-.812.006-.989.668-.018.928.348.254.818-.006,1m2.37,2.7c-.228.251-.712.184-1.067-.159a.8.8,0,0,1-.236-1.061c.23-.251.718-.181,1.075.159s.471.813.228,1.061m3.062.912c-.1.325-.567.473-1.037.335s-.777-.523-.682-.852.567-.481,1.041-.334.777.52.679.851m3.486.387c.012.343-.387.627-.881.633s-.9-.266-.9-.6.39-.627.886-.635.9.265.9.606m3.424-.131c.059.334-.284.677-.774.769s-.928-.118-.99-.449.29-.686.771-.774.93.116.993.455"
    transform="translate(-29.899 -121.021)"
    fill="#161614"
  />
</svg>