<svg
  xmlns="http://www.w3.org/2000/svg"
  viewBox="0 0 81.002 81.002"
>
  <path
    d="M0,5.8A5.9,5.9,0,0,1,5.987,0H75.016A5.9,5.9,0,0,1,81,5.8V75.2A5.9,5.9,0,0,1,75.016,81H5.987A5.9,5.9,0,0,1,0,75.2V5.8Z"
    fill="#069"
  />
  <path
    d="M50.066,97.475V61.007H37.944V97.475H50.067ZM44.008,56.029c4.226,0,6.857-2.8,6.857-6.3-.079-3.579-2.631-6.3-6.777-6.3s-6.858,2.722-6.858,6.3c0,3.5,2.63,6.3,6.7,6.3h.078ZM56.775,97.475H68.9V77.112a8.3,8.3,0,0,1,.4-2.957,6.634,6.634,0,0,1,6.219-4.434c4.385,0,6.14,3.344,6.14,8.247V97.475h12.12V76.565c0-11.2-5.979-16.413-13.954-16.413a12.076,12.076,0,0,0-11,6.143H68.9V61.009H56.776c.158,3.421,0,36.467,0,36.467Z"
    transform="translate(-25.45 -29.687)"
    fill="#fff"
  />
</svg>